<?xml version="1.0" encoding="utf-8"?>
<!-- Generator: Adobe Illustrator 13.0.2, SVG Export Plug-In . SVG Version: 6.00 Build 14948)  -->
<!DOCTYPE svg PUBLIC "-//W3C//DTD SVG 1.1//EN" "http://www.w3.org/Graphics/SVG/1.1/DTD/svg11.dtd">
<svg version="1.1" id="OpenShare_icon" xmlns="http://www.w3.org/2000/svg" xmlns:xlink="http://www.w3.org/1999/xlink" x="0px"
	 y="0px" width="108.352px" height="108.352px" viewBox="0 0 108.352 108.352" enable-background="new 0 0 108.352 108.352"
	 xml:space="preserve">
<g id="Body">
	<g id="XMLID_3_">
		<g>
			<path fill="#006B33" d="M108.176,23.202v61.948c0,12.716-10.311,23.026-23.026,23.026H23.202
				c-12.715,0-23.026-10.311-23.026-23.026V23.202c0-12.715,10.311-23.026,23.026-23.026h61.948
				C97.865,0.176,108.176,10.486,108.176,23.202z"/>
		</g>
		<g>
		</g>
	</g>
	<g id="XMLID_1_">
		<g>
			<path fill="#329E26" d="M83.14,104.682H25.211c-11.9,0-21.541-9.641-21.541-21.533V25.203C3.67,13.671,13.671,3.67,25.211,3.67
				H83.14c11.9,0,21.542,9.642,21.542,21.533v57.945C104.682,95.041,95.04,104.682,83.14,104.682z"/>
		</g>
		<g>
		</g>
	</g>
	
		<linearGradient id="gradient_2_" gradientUnits="userSpaceOnUse" x1="95.8633" y1="95.8652" x2="12.4868" y2="12.4888" gradientTransform="matrix(1 0 0 1 -4.882813e-004 -9.765625e-004)">
		<stop  offset="0.0056" style="stop-color:#0E6034"/>
		<stop  offset="0.2433" style="stop-color:#217B35"/>
		<stop  offset="0.5056" style="stop-color:#399E36"/>
		<stop  offset="0.5314" style="stop-color:#369A36"/>
		<stop  offset="0.8412" style="stop-color:#197035"/>
		<stop  offset="1" style="stop-color:#0E6034"/>
	</linearGradient>
	<path id="gradient_1_" fill="url(#gradient_2_)" d="M101.813,81.497c0,11.22-9.097,20.318-20.309,20.318H26.847
		c-11.217,0-20.309-9.099-20.309-20.318V26.855c0-11.223,9.092-20.318,20.309-20.318h54.657c11.212,0,20.309,9.095,20.309,20.318
		V81.497z"/>
</g>
<g id="Icon_Shape">
	<g>
		<path fill-rule="evenodd" clip-rule="evenodd" fill="#FFFFFF" d="M54.158,32.243c4.524,0,8.728,1.37,12.215,3.718l0.003-0.006
			c0.826,0.551,1.818,0.872,2.886,0.872c2.874,0,5.204-2.323,5.204-5.188c0-1.888-1.014-3.542-2.526-4.449
			c-5.1-3.363-11.21-5.323-17.781-5.323c-13.789,0-25.553,8.624-30.171,20.752H10.443v10.378h17.468
			c2.369-0.038,4.296-1.669,4.876-3.553c0.044-0.2,0.091-0.402,0.138-0.603c0.003-0.002,0.003-0.005,0.003-0.008v0.001
			C35.268,39.309,43.885,32.243,54.158,32.243z M80.482,55.071l0.015,0.003c-2.442,0-4.431,1.694-4.986,3.635
			c-0.03,0.14-0.063,0.279-0.097,0.417c-0.007,0.038-0.014,0.075-0.02,0.114l-0.002-0.021c-2.333,9.53-10.954,16.605-21.234,16.605
			c-4.434,0-8.559-1.318-12.006-3.581c-0.833-0.567-1.841-0.9-2.928-0.9c-2.874,0-5.203,2.324-5.203,5.188
			c0,1.8,0.918,3.386,2.314,4.315l-0.001,0.002c5.106,3.382,11.234,5.353,17.824,5.353c13.788,0,25.553-8.623,30.172-20.753h13.545
			V55.071H80.482z M54.158,41.583c-6.898,0-12.491,5.575-12.491,12.451c0,6.876,5.593,12.452,12.491,12.452
			c6.898,0,12.491-5.575,12.491-12.452C66.649,47.158,61.057,41.583,54.158,41.583z"/>
	</g>
</g>
</svg>
